<svg xmlns="http://www.w3.org/2000/svg" viewBox="0 0 44.56 18.98"><defs><style>.a,.b{fill:#31a3dd;}.b{font-size:14px;font-family:OpenSans-Bold, Open Sans;font-weight:700;}.c{font-size:6px;}</style></defs><title>FOEX_AJAX</title><path class="a" d="M21.88,6.13h2V12a3,3,0,0,1-4.1,2.89l-1.23,1.63A5,5,0,0,0,25.88,12V6.13h2l-3-4Z" transform="translate(-3.38 -1.13)"/><path class="a" d="M23.2,1.7a5,5,0,0,0-7.32,4.59v5.84h-2l3,4,3-4h-2V6.22a3,3,0,0,1,2.12-3,3.08,3.08,0,0,1,2,.08Z" transform="translate(-3.38 -1.13)"/><text class="b" transform="translate(0 14.87)">A</text><text class="b" transform="translate(24 14.87)">A<tspan class="c" x="9.66" y="0"> </tspan><tspan x="11.22" y="0">X</tspan></text></svg>